
<global>
amp_veltrack=0
</global>

<group>
ampeg_attack=0.01
ampeg_release=3.5
group_label=FF
xf_cccurve=gain
xfin_hicc1=127
xfin_locc1=85
xfout_hicc1=127
xfout_locc1=127

<region>
hikey=a#2
hivel=127
lokey=a2
loop_end=270641
loop_mode=loop_continuous
loop_start=73198
loop_xfade=19614
lovel=0
offset=124
pitch_keycenter=a#2
release_start=288000
release_xfade=16083
sample=Cellos_tremolo_FF_A#2.opus
</region>

<region>
hikey=a#3
hivel=127
lokey=a3
loop_end=271538
loop_mode=loop_continuous
loop_start=73441
loop_xfade=19679
lovel=0
offset=995
pitch_keycenter=a#3
release_start=288000
release_xfade=16137
sample=Cellos_tremolo_FF_A#3.opus
</region>

<region>
hikey=a#4
hivel=127
lokey=a4
loop_end=271339
loop_mode=loop_continuous
loop_start=73387
loop_xfade=19665
lovel=0
offset=1330
pitch_keycenter=a#4
release_start=288000
release_xfade=16125
sample=Cellos_tremolo_FF_A#4.opus
</region>

<region>
hivel=127
key=c2
loop_end=265350
loop_mode=loop_continuous
loop_start=71767
loop_xfade=19231
lovel=0
offset=254
release_start=288000
release_xfade=15769
sample=Cellos_tremolo_FF_C2.opus
</region>

<region>
hikey=c3
hivel=127
lokey=b2
loop_end=265412
loop_mode=loop_continuous
loop_start=71784
loop_xfade=19235
lovel=0
pitch_keycenter=c3
release_start=288000
release_xfade=15772
sample=Cellos_tremolo_FF_C3.opus
</region>

<region>
hikey=c4
hivel=127
lokey=b3
loop_end=269648
loop_mode=loop_continuous
loop_start=72929
loop_xfade=19542
lovel=0
offset=521
pitch_keycenter=c4
release_start=288000
release_xfade=16024
sample=Cellos_tremolo_FF_C4.opus
</region>

<region>
hikey=c5
hivel=127
lokey=b4
loop_end=270055
loop_mode=loop_continuous
loop_start=73039
loop_xfade=19572
lovel=0
offset=316
pitch_keycenter=c5
release_start=288000
release_xfade=16048
sample=Cellos_tremolo_FF_C5.opus
</region>

<region>
hikey=d2
hivel=127
lokey=c#2
loop_end=272058
loop_mode=loop_continuous
loop_start=73581
loop_xfade=19717
lovel=0
offset=605
pitch_keycenter=d2
release_start=288000
release_xfade=16167
sample=Cellos_tremolo_FF_D2.opus
</region>

<region>
hikey=d3
hivel=127
lokey=c#3
loop_end=265218
loop_mode=loop_continuous
loop_start=71731
loop_xfade=19221
lovel=0
offset=1257
pitch_keycenter=d3
release_start=288000
release_xfade=15761
sample=Cellos_tremolo_FF_D3.opus
</region>

<region>
hikey=d4
hivel=127
lokey=c#4
loop_end=268397
loop_mode=loop_continuous
loop_start=72591
loop_xfade=19451
lovel=0
pitch_keycenter=d4
release_start=288000
release_xfade=15950
sample=Cellos_tremolo_FF_D4.opus
</region>

<region>
hikey=d5
hivel=127
lokey=c#5
loop_end=263020
loop_mode=loop_continuous
loop_start=71137
loop_xfade=19062
lovel=0
offset=81
pitch_keycenter=d5
release_start=288000
release_xfade=15630
sample=Cellos_tremolo_FF_D5.opus
</region>

<region>
hikey=e2
hivel=127
lokey=d#2
loop_end=267541
loop_mode=loop_continuous
loop_start=72359
loop_xfade=19389
lovel=0
pitch_keycenter=e2
release_start=288000
release_xfade=15899
sample=Cellos_tremolo_FF_E2.opus
</region>

<region>
hikey=e3
hivel=127
lokey=d#3
loop_end=267894
loop_mode=loop_continuous
loop_start=72455
loop_xfade=19415
lovel=0
pitch_keycenter=e3
release_start=288000
release_xfade=15920
sample=Cellos_tremolo_FF_E3.opus
</region>

<region>
hikey=e4
hivel=127
lokey=d#4
loop_end=259331
loop_mode=loop_continuous
loop_start=70139
loop_xfade=18794
lovel=0
offset=1066
pitch_keycenter=e4
release_start=288000
release_xfade=15411
sample=Cellos_tremolo_FF_E4.opus
</region>

<region>
hikey=e5
hivel=127
lokey=d#5
loop_end=267127
loop_mode=loop_continuous
loop_start=72248
loop_xfade=19359
lovel=0
offset=785
pitch_keycenter=e5
release_start=288000
release_xfade=15874
sample=Cellos_tremolo_FF_E5.opus
</region>

<region>
hikey=f#2
hivel=127
lokey=f2
loop_end=269108
loop_mode=loop_continuous
loop_start=72783
loop_xfade=19503
lovel=0
pitch_keycenter=f#2
release_start=288000
release_xfade=15992
sample=Cellos_tremolo_FF_F#2.opus
</region>

<region>
hikey=f#3
hivel=127
lokey=f3
loop_end=270382
loop_mode=loop_continuous
loop_start=73128
loop_xfade=19595
lovel=0
offset=810
pitch_keycenter=f#3
release_start=288000
release_xfade=16068
sample=Cellos_tremolo_FF_F#3.opus
</region>

<region>
hikey=f#4
hivel=127
lokey=f4
loop_end=270216
loop_mode=loop_continuous
loop_start=73083
loop_xfade=19583
lovel=0
pitch_keycenter=f#4
release_start=288000
release_xfade=16058
sample=Cellos_tremolo_FF_F#4.opus
</region>

<region>
hikey=F6
hivel=127
lokey=f5
loop_end=265596
loop_mode=loop_continuous
loop_start=71834
loop_xfade=19248
lovel=0
offset=716
pitch_keycenter=F#5
release_start=288000
release_xfade=15783
sample=Cellos_tremolo_FF_F#5.opus
</region>

<region>
hikey=g#2
hivel=127
lokey=g2
loop_end=272849
loop_mode=loop_continuous
loop_start=73795
loop_xfade=19774
lovel=0
pitch_keycenter=g#2
release_start=288000
release_xfade=16214
sample=Cellos_tremolo_FF_G#2.opus
</region>

<region>
hikey=g#3
hivel=127
lokey=g3
loop_end=268975
loop_mode=loop_continuous
loop_start=72747
loop_xfade=19493
lovel=0
offset=399
pitch_keycenter=g#3
release_start=288000
release_xfade=15984
sample=Cellos_tremolo_FF_G#3.opus
</region>

<region>
hikey=g#4
hivel=127
lokey=g4
loop_end=268399
loop_mode=loop_continuous
loop_start=72592
loop_xfade=19452
lovel=0
offset=943
pitch_keycenter=g#4
release_start=288000
release_xfade=15950
sample=Cellos_tremolo_FF_G#4.opus
</region>
</group>

<group>
ampeg_attack=0.01
ampeg_release=3.5
group_label=MF
xf_cccurve=gain
xfin_hicc1=85
xfin_locc1=42
xfout_hicc1=127
xfout_locc1=85

<region>
hikey=a#3
hivel=127
lokey=a3
loop_end=274509
loop_mode=loop_continuous
loop_start=74244
loop_xfade=19894
lovel=0
offset=5462
pitch_keycenter=a#3
release_start=288000
release_xfade=16313
sample=Cellos_tremolo_MF_A#3.opus
</region>

<region>
hikey=a#4
hivel=127
lokey=a4
loop_end=265222
loop_mode=loop_continuous
loop_start=71732
loop_xfade=19221
lovel=0
offset=3980
pitch_keycenter=a#4
release_start=288000
release_xfade=15761
sample=Cellos_tremolo_MF_A#4.opus
</region>

<region>
hikey=c4
hivel=127
lokey=b3
loop_end=267126
loop_mode=loop_continuous
loop_start=72247
loop_xfade=19359
lovel=0
offset=1179
pitch_keycenter=c4
release_start=288000
release_xfade=15874
sample=Cellos_tremolo_MF_C4.opus
</region>

<region>
hikey=c5
hivel=127
lokey=b4
loop_end=269405
loop_mode=loop_continuous
loop_start=72864
loop_xfade=19524
lovel=0
offset=2160
pitch_keycenter=c5
release_start=288000
release_xfade=16010
sample=Cellos_tremolo_MF_C5.opus
</region>

<region>
hikey=d4
hivel=127
lokey=c#4
loop_end=264589
loop_mode=loop_continuous
loop_start=71561
loop_xfade=19175
lovel=0
offset=2327
pitch_keycenter=d4
release_start=288000
release_xfade=15724
sample=Cellos_tremolo_MF_D4.opus
</region>

<region>
hikey=d5
hivel=127
lokey=c#5
loop_end=264724
loop_mode=loop_continuous
loop_start=71597
loop_xfade=19185
lovel=0
offset=1405
pitch_keycenter=d5
release_start=288000
release_xfade=15732
sample=Cellos_tremolo_MF_D5.opus
</region>

<region>
hikey=e4
hivel=127
lokey=d#4
loop_end=259742
loop_mode=loop_continuous
loop_start=70250
loop_xfade=18824
lovel=0
offset=385
pitch_keycenter=e4
release_start=288000
release_xfade=15436
sample=Cellos_tremolo_MF_E4.opus
</region>

<region>
hikey=e5
hivel=127
lokey=d#5
loop_end=264619
loop_mode=loop_continuous
loop_start=71569
loop_xfade=19178
lovel=0
offset=129
pitch_keycenter=e5
release_start=288000
release_xfade=15725
sample=Cellos_tremolo_MF_E5.opus
</region>

<region>
hikey=f#4
hivel=127
lokey=f4
loop_end=268158
loop_mode=loop_continuous
loop_start=72526
loop_xfade=19434
lovel=0
offset=179
pitch_keycenter=f#4
release_start=288000
release_xfade=15936
sample=Cellos_tremolo_MF_F#4.opus
</region>

<region>
hikey=F6
hivel=127
lokey=f5
loop_end=266930
loop_mode=loop_continuous
loop_start=72194
loop_xfade=19345
lovel=0
offset=656
pitch_keycenter=F#5
release_start=288000
release_xfade=15863
sample=Cellos_tremolo_MF_F#5.opus
</region>

<region>
hikey=g#4
hivel=127
lokey=g4
loop_end=265003
loop_mode=loop_continuous
loop_start=71673
loop_xfade=19205
lovel=0
offset=606
pitch_keycenter=g#4
release_start=288000
release_xfade=15748
sample=Cellos_tremolo_MF_G#4.opus
</region>

<region>
hikey=a#2
hivel=127
lokey=a2
loop_end=267686
loop_mode=loop_continuous
loop_start=72399
loop_xfade=19400
lovel=0
offset=1601
pitch_keycenter=a#2
release_start=288000
release_xfade=15908
sample=Cellos_tremolo_MF_A#2.opus
</region>

<region>
hivel=127
key=c2
loop_end=270954
loop_mode=loop_continuous
loop_start=73283
loop_xfade=19637
lovel=0
offset=839
release_start=288000
release_xfade=16102
sample=Cellos_tremolo_MF_C2.opus
</region>

<region>
hikey=c3
hivel=127
lokey=b2
loop_end=262576
loop_mode=loop_continuous
loop_start=71017
loop_xfade=19030
lovel=0
offset=1703
pitch_keycenter=c3
release_start=288000
release_xfade=15604
sample=Cellos_tremolo_MF_C3.opus
</region>

<region>
hikey=d2
hivel=127
lokey=c#2
loop_end=270076
loop_mode=loop_continuous
loop_start=73045
loop_xfade=19573
lovel=0
offset=362
pitch_keycenter=d2
release_start=288000
release_xfade=16050
sample=Cellos_tremolo_MF_D2.opus
</region>

<region>
hikey=d3
hivel=127
lokey=c#3
loop_end=271857
loop_mode=loop_continuous
loop_start=73527
loop_xfade=19702
lovel=0
offset=1227
pitch_keycenter=d3
release_start=288000
release_xfade=16155
sample=Cellos_tremolo_MF_D3.opus
</region>

<region>
hikey=e2
hivel=127
lokey=d#2
loop_end=268297
loop_mode=loop_continuous
loop_start=72564
loop_xfade=19444
lovel=0
offset=149
pitch_keycenter=e2
release_start=288000
release_xfade=15944
sample=Cellos_tremolo_MF_E2.opus
</region>

<region>
hikey=e3
hivel=127
lokey=d#3
loop_end=269431
loop_mode=loop_continuous
loop_start=72871
loop_xfade=19526
lovel=0
offset=1308
pitch_keycenter=e3
release_start=288000
release_xfade=16011
sample=Cellos_tremolo_MF_E3.opus
</region>

<region>
hikey=f#2
hivel=127
lokey=f2
loop_end=269000
loop_mode=loop_continuous
loop_start=72754
loop_xfade=19495
lovel=0
offset=2367
pitch_keycenter=f#2
release_start=288000
release_xfade=15986
sample=Cellos_tremolo_MF_F#2.opus
</region>

<region>
hikey=f#3
hivel=127
lokey=f3
loop_end=264334
loop_mode=loop_continuous
loop_start=71492
loop_xfade=19157
lovel=0
offset=367
pitch_keycenter=f#3
release_start=288000
release_xfade=15708
sample=Cellos_tremolo_MF_F#3.opus
</region>

<region>
hikey=g#2
hivel=127
lokey=g2
loop_end=268755
loop_mode=loop_continuous
loop_start=72688
loop_xfade=19477
lovel=0
offset=2477
pitch_keycenter=g#2
release_start=288000
release_xfade=15971
sample=Cellos_tremolo_MF_G#2.opus
</region>

<region>
hikey=g#3
hivel=127
lokey=g3
loop_end=263851
loop_mode=loop_continuous
loop_start=71361
loop_xfade=19122
lovel=0
offset=1094
pitch_keycenter=g#3
release_start=288000
release_xfade=15680
sample=Cellos_tremolo_MF_G#3.opus
</region>
</group>

<group>
ampeg_attack=0.01
ampeg_release=3.5
group_label=PP
xf_cccurve=gain
xfin_hicc1=42
xfout_hicc1=85
xfout_locc1=42

<region>
hikey=c5
hivel=127
lokey=b4
loop_end=282377
loop_mode=loop_continuous
loop_start=76372
loop_xfade=20465
lovel=0
offset=18223
pitch_keycenter=c5
release_start=288000
release_xfade=16781
sample=Cellos_tremolo_PP_C5.opus
</region>

<region>
hikey=d5
hivel=127
lokey=c#5
loop_end=282377
loop_mode=loop_continuous
loop_start=76372
loop_xfade=20465
lovel=0
offset=19535
pitch_keycenter=d5
release_start=288000
release_xfade=16781
sample=Cellos_tremolo_PP_D5.opus
</region>

<region>
hikey=e5
hivel=127
lokey=d#5
loop_end=280787
loop_mode=loop_continuous
loop_start=75942
loop_xfade=20349
lovel=0
offset=13908
pitch_keycenter=e5
release_start=288000
release_xfade=16686
sample=Cellos_tremolo_PP_E5.opus
</region>

<region>
hikey=F6
hivel=127
lokey=f5
loop_end=282377
loop_mode=loop_continuous
loop_start=76372
loop_xfade=20465
lovel=0
offset=18262
pitch_keycenter=F#5
release_start=288000
release_xfade=16781
sample=Cellos_tremolo_PP_F#5.opus
</region>

<region>
hikey=a#2
hivel=127
lokey=a2
loop_end=282173
loop_mode=loop_continuous
loop_start=76317
loop_xfade=20450
lovel=0
offset=16500
pitch_keycenter=a#2
release_start=288000
release_xfade=16769
sample=Cellos_tremolo_PP_A#2.opus
</region>

<region>
hikey=a#3
hivel=127
lokey=a3
loop_end=282377
loop_mode=loop_continuous
loop_start=76372
loop_xfade=20465
lovel=0
offset=11836
pitch_keycenter=a#3
release_start=288000
release_xfade=16781
sample=Cellos_tremolo_PP_A#3.opus
</region>

<region>
hikey=a#4
hivel=127
lokey=a4
loop_end=282377
loop_mode=loop_continuous
loop_start=76372
loop_xfade=20465
lovel=0
offset=18457
pitch_keycenter=a#4
release_start=288000
release_xfade=16781
sample=Cellos_tremolo_PP_A#4.opus
</region>

<region>
hivel=127
key=c2
loop_end=282377
loop_mode=loop_continuous
loop_start=76372
loop_xfade=20465
lovel=0
offset=17628
release_start=288000
release_xfade=16781
sample=Cellos_tremolo_PP_C2.opus
</region>

<region>
hikey=c3
hivel=127
lokey=b2
loop_end=282377
loop_mode=loop_continuous
loop_start=76372
loop_xfade=20465
lovel=0
offset=19796
pitch_keycenter=c3
release_start=288000
release_xfade=16781
sample=Cellos_tremolo_PP_C3.opus
</region>

<region>
hikey=c4
hivel=127
lokey=b3
loop_end=282377
loop_mode=loop_continuous
loop_start=76372
loop_xfade=20465
lovel=0
offset=17525
pitch_keycenter=c4
release_start=288000
release_xfade=16781
sample=Cellos_tremolo_PP_C4.opus
</region>

<region>
hikey=d2
hivel=127
lokey=c#2
loop_end=282377
loop_mode=loop_continuous
loop_start=76372
loop_xfade=20465
lovel=0
offset=15307
pitch_keycenter=d2
release_start=288000
release_xfade=16781
sample=Cellos_tremolo_PP_D2.opus
</region>

<region>
hikey=d3
hivel=127
lokey=c#3
loop_end=282377
loop_mode=loop_continuous
loop_start=76372
loop_xfade=20465
lovel=0
offset=15416
pitch_keycenter=d3
release_start=288000
release_xfade=16781
sample=Cellos_tremolo_PP_D3.opus
</region>

<region>
hikey=d4
hivel=127
lokey=c#4
loop_end=282028
loop_mode=loop_continuous
loop_start=76278
loop_xfade=20439
lovel=0
offset=26722
pitch_keycenter=d4
release_start=288000
release_xfade=16760
sample=Cellos_tremolo_PP_D4.opus
</region>

<region>
hikey=e2
hivel=127
lokey=d#2
loop_end=288515
loop_mode=loop_continuous
loop_start=76318
loop_xfade=20450
lovel=0
offset=18385
pitch_keycenter=e2
release_start=288000
release_xfade=16769
sample=Cellos_tremolo_PP_E2.opus
</region>

<region>
hikey=e3
hivel=127
lokey=d#3
loop_end=271711
loop_mode=loop_continuous
loop_start=73487
loop_xfade=19692
lovel=0
offset=2549
pitch_keycenter=e3
release_start=288000
release_xfade=16147
sample=Cellos_tremolo_PP_E3.opus
</region>

<region>
hikey=e4
hivel=127
lokey=d#4
loop_end=282377
loop_mode=loop_continuous
loop_start=76372
loop_xfade=20465
lovel=0
offset=15534
pitch_keycenter=e4
release_start=288000
release_xfade=16781
sample=Cellos_tremolo_PP_E4.opus
</region>

<region>
hikey=f#2
hivel=127
lokey=f2
loop_end=282377
loop_mode=loop_continuous
loop_start=76372
loop_xfade=20465
lovel=0
offset=16858
pitch_keycenter=f#2
release_start=288000
release_xfade=16781
sample=Cellos_tremolo_PP_F#2.opus
</region>

<region>
hikey=f#3
hivel=127
lokey=f3
loop_end=282377
loop_mode=loop_continuous
loop_start=76372
loop_xfade=20465
lovel=0
offset=15930
pitch_keycenter=f#3
release_start=288000
release_xfade=16781
sample=Cellos_tremolo_PP_F#3.opus
</region>

<region>
hikey=f#4
hivel=127
lokey=f4
loop_end=279870
loop_mode=loop_continuous
loop_start=75694
loop_xfade=20283
lovel=0
offset=17804
pitch_keycenter=f#4
release_start=288000
release_xfade=16632
sample=Cellos_tremolo_PP_F#4.opus
</region>

<region>
hikey=g#2
hivel=127
lokey=g2
loop_end=281036
loop_mode=loop_continuous
loop_start=76010
loop_xfade=20367
lovel=0
offset=14970
pitch_keycenter=g#2
release_start=288000
release_xfade=16701
sample=Cellos_tremolo_PP_G#2.opus
</region>

<region>
hikey=g#3
hivel=127
lokey=g3
loop_end=282377
loop_mode=loop_continuous
loop_start=76372
loop_xfade=20465
lovel=0
offset=17089
pitch_keycenter=g#3
release_start=288000
release_xfade=16781
sample=Cellos_tremolo_PP_G#3.opus
</region>

<region>
hikey=g#4
hivel=127
lokey=g4
loop_end=280195
loop_mode=loop_continuous
loop_start=75782
loop_xfade=20306
lovel=0
offset=13530
pitch_keycenter=g#4
release_start=288000
release_xfade=16651
sample=Cellos_tremolo_PP_G#4.opus
</region>
</group>

<group>
amp_veltrack=0
ampeg_release=1.50
group_label=RR1_0-42_copy_copy
volume=0.0
xfin_hicc1=42
xfout_hicc1=84
xfout_locc1=42

<region>
hivel=127
key=A#2
lovel=0
sample=Cellos_staccato_PP_A#2_RR1.opus
</region>

<region>
hivel=127
key=A#3
lovel=0
sample=Cellos_staccato_PP_A#3_RR1.opus
</region>

<region>
hivel=127
key=A#4
lovel=0
sample=Cellos_staccato_PP_A#4_RR1.opus
</region>

<region>
hivel=127
key=A2
lovel=0
sample=Cellos_staccato_PP_A2_RR1.opus
</region>

<region>
hivel=127
key=A3
lovel=0
sample=Cellos_staccato_PP_A3_RR1.opus
</region>

<region>
hivel=127
key=A4
lovel=0
sample=Cellos_staccato_PP_A4_RR1.opus
</region>

<region>
hivel=127
key=B2
lovel=0
sample=Cellos_staccato_PP_B2_RR1.opus
</region>

<region>
hivel=127
key=B3
lovel=0
sample=Cellos_staccato_PP_B3_RR1.opus
</region>

<region>
hivel=127
key=B4
lovel=0
sample=Cellos_staccato_PP_B4_RR1.opus
</region>

<region>
hivel=127
key=C#2
lovel=0
sample=Cellos_staccato_PP_C#2_RR1.opus
</region>

<region>
hivel=127
key=C#3
lovel=0
sample=Cellos_staccato_PP_C#3_RR1.opus
</region>

<region>
hivel=127
key=C#4
lovel=0
sample=Cellos_staccato_PP_C#4_RR1.opus
</region>

<region>
hivel=127
key=C#5
lovel=0
sample=Cellos_staccato_PP_C#5_RR1.opus
</region>

<region>
hivel=127
key=C2
lovel=0
sample=Cellos_staccato_PP_C2_RR1.opus
</region>

<region>
hivel=127
key=C3
lovel=0
sample=Cellos_staccato_PP_C3_RR1.opus
</region>

<region>
hivel=127
key=C4
lovel=0
sample=Cellos_staccato_PP_C4_RR1.opus
</region>

<region>
hivel=127
key=C5
lovel=0
sample=Cellos_staccato_PP_C5_RR1.opus
</region>

<region>
hivel=127
key=D#2
lovel=0
sample=Cellos_staccato_PP_D#2_RR1.opus
</region>

<region>
hivel=127
key=D#3
lovel=0
sample=Cellos_staccato_PP_D#3_RR1.opus
</region>

<region>
hivel=127
key=D#4
lovel=0
sample=Cellos_staccato_PP_D#4_RR1.opus
</region>

<region>
hivel=127
key=D#5
lovel=0
sample=Cellos_staccato_PP_D#5_RR1.opus
</region>

<region>
hivel=127
key=D2
lovel=0
sample=Cellos_staccato_PP_D2_RR1.opus
</region>

<region>
hivel=127
key=D3
lovel=0
sample=Cellos_staccato_PP_D3_RR1.opus
</region>

<region>
hivel=127
key=D4
lovel=0
sample=Cellos_staccato_PP_D4_RR1.opus
</region>

<region>
hivel=127
key=D5
lovel=0
sample=Cellos_staccato_PP_D5_RR1.opus
</region>

<region>
hivel=127
key=E2
lovel=0
sample=Cellos_staccato_PP_E2_RR1.opus
</region>

<region>
hivel=127
key=E3
lovel=0
sample=Cellos_staccato_PP_E3_RR1.opus
</region>

<region>
hivel=127
key=E4
lovel=0
sample=Cellos_staccato_PP_E4_RR1.opus
</region>

<region>
hivel=127
key=E5
lovel=0
sample=Cellos_staccato_PP_E5_RR1.opus
</region>

<region>
hivel=127
key=F#2
lovel=0
sample=Cellos_staccato_PP_F#2_RR1.opus
</region>

<region>
hivel=127
key=F#3
lovel=0
sample=Cellos_staccato_PP_F#3_RR1.opus
</region>

<region>
hivel=127
key=F#4
lovel=0
sample=Cellos_staccato_PP_F#4_RR1.opus
</region>

<region>
hivel=127
key=F#5
lovel=0
sample=Cellos_staccato_PP_F#5_RR1.opus
</region>

<region>
hivel=127
key=F2
lovel=0
sample=Cellos_staccato_PP_F2_RR1.opus
</region>

<region>
hivel=127
key=F3
lovel=0
sample=Cellos_staccato_PP_F3_RR1.opus
</region>

<region>
hivel=127
key=F4
lovel=0
sample=Cellos_staccato_PP_F4_RR1.opus
</region>

<region>
hivel=127
key=F5
lovel=0
sample=Cellos_staccato_PP_F5_RR1.opus
</region>

<region>
hivel=127
key=G#2
lovel=0
sample=Cellos_staccato_PP_G#2_RR1.opus
</region>

<region>
hivel=127
key=G#3
lovel=0
sample=Cellos_staccato_PP_G#3_RR1.opus
</region>

<region>
hivel=127
key=G#4
lovel=0
sample=Cellos_staccato_PP_G#4_RR1.opus
</region>

<region>
hivel=127
key=G2
lovel=0
sample=Cellos_staccato_PP_G2_RR1.opus
</region>

<region>
hivel=127
key=G3
lovel=0
sample=Cellos_staccato_PP_G3_RR1.opus
</region>

<region>
hivel=127
key=G4
lovel=0
sample=Cellos_staccato_PP_G4_RR1.opus
</region>

<region>
hikey=F6
hivel=127
lokey=G5
lovel=0
pitch_keycenter=G5
sample=Cellos_staccato_PP_G5_RR1.opus
</region>
</group>

<group>
amp_veltrack=0
ampeg_release=1.50
group_label=RR1_43-84_copy_copy
volume=0.0
xfin_hicc1=84
xfin_locc1=43
xfout_hicc1=125
xfout_locc1=84

<region>
hivel=127
key=A#2
lovel=0
sample=Cellos_staccato_MF_A#2_RR1.opus
</region>

<region>
hivel=127
key=A#3
lovel=0
sample=Cellos_staccato_MF_A#3_RR1.opus
</region>

<region>
hivel=127
key=A#4
lovel=0
sample=Cellos_staccato_MF_A#4_RR1.opus
</region>

<region>
hivel=127
key=A2
lovel=0
sample=Cellos_staccato_MF_A2_RR1.opus
</region>

<region>
hivel=127
key=A3
lovel=0
sample=Cellos_staccato_MF_A3_RR1.opus
</region>

<region>
hivel=127
key=A4
lovel=0
sample=Cellos_staccato_MF_A4_RR1.opus
</region>

<region>
hivel=127
key=B2
lovel=0
sample=Cellos_staccato_MF_B2_RR1.opus
</region>

<region>
hivel=127
key=B3
lovel=0
sample=Cellos_staccato_MF_B3_RR1.opus
</region>

<region>
hivel=127
key=B4
lovel=0
sample=Cellos_staccato_MF_B4_RR1.opus
</region>

<region>
hivel=127
key=C#2
lovel=0
sample=Cellos_staccato_MF_C#2_RR1.opus
</region>

<region>
hivel=127
key=C#3
lovel=0
sample=Cellos_staccato_MF_C#3_RR1.opus
</region>

<region>
hivel=127
key=C#4
lovel=0
sample=Cellos_staccato_MF_C#4_RR1.opus
</region>

<region>
hivel=127
key=C#5
lovel=0
sample=Cellos_staccato_MF_C#5_RR1.opus
</region>

<region>
hivel=127
key=C2
lovel=0
sample=Cellos_staccato_MF_C2_RR1.opus
</region>

<region>
hivel=127
key=C3
lovel=0
sample=Cellos_staccato_MF_C3_RR1.opus
</region>

<region>
hivel=127
key=C4
lovel=0
sample=Cellos_staccato_MF_C4_RR1.opus
</region>

<region>
hivel=127
key=C5
lovel=0
sample=Cellos_staccato_MF_C5_RR1.opus
</region>

<region>
hivel=127
key=D#2
lovel=0
sample=Cellos_staccato_MF_D#2_RR1.opus
</region>

<region>
hivel=127
key=D#3
lovel=0
sample=Cellos_staccato_MF_D#3_RR1.opus
</region>

<region>
hivel=127
key=D#4
lovel=0
sample=Cellos_staccato_MF_D#4_RR1.opus
</region>

<region>
hivel=127
key=D#5
lovel=0
sample=Cellos_staccato_MF_D#5_RR1.opus
</region>

<region>
hivel=127
key=D2
lovel=0
sample=Cellos_staccato_MF_D2_RR1.opus
</region>

<region>
hivel=127
key=D3
lovel=0
sample=Cellos_staccato_MF_D3_RR1.opus
</region>

<region>
hivel=127
key=D4
lovel=0
sample=Cellos_staccato_MF_D4_RR1.opus
</region>

<region>
hivel=127
key=D5
lovel=0
sample=Cellos_staccato_MF_D5_RR1.opus
</region>

<region>
hivel=127
key=E2
lovel=0
sample=Cellos_staccato_MF_E2_RR1.opus
</region>

<region>
hivel=127
key=E3
lovel=0
sample=Cellos_staccato_MF_E3_RR1.opus
</region>

<region>
hivel=127
key=E4
lovel=0
sample=Cellos_staccato_MF_E4_RR1.opus
</region>

<region>
hivel=127
key=E5
lovel=0
sample=Cellos_staccato_MF_E5_RR1.opus
</region>

<region>
hivel=127
key=F#2
lovel=0
sample=Cellos_staccato_MF_F#2_RR1.opus
</region>

<region>
hivel=127
key=F#3
lovel=0
sample=Cellos_staccato_MF_F#3_RR1.opus
</region>

<region>
hivel=127
key=F#4
lovel=0
sample=Cellos_staccato_MF_F#4_RR1.opus
</region>

<region>
hivel=127
key=F#5
lovel=0
sample=Cellos_staccato_MF_F#5_RR1.opus
</region>

<region>
hivel=127
key=F2
lovel=0
sample=Cellos_staccato_MF_F2_RR1.opus
</region>

<region>
hivel=127
key=F3
lovel=0
sample=Cellos_staccato_MF_F3_RR1.opus
</region>

<region>
hivel=127
key=F4
lovel=0
sample=Cellos_staccato_MF_F4_RR1.opus
</region>

<region>
hivel=127
key=F5
lovel=0
sample=Cellos_staccato_MF_F5_RR1.opus
</region>

<region>
hivel=127
key=G#2
lovel=0
sample=Cellos_staccato_MF_G#2_RR1.opus
</region>

<region>
hivel=127
key=G#3
lovel=0
sample=Cellos_staccato_MF_G#3_RR1.opus
</region>

<region>
hivel=127
key=G#4
lovel=0
sample=Cellos_staccato_MF_G#4_RR1.opus
</region>

<region>
hivel=127
key=G2
lovel=0
sample=Cellos_staccato_MF_G2_RR1.opus
</region>

<region>
hivel=127
key=G3
lovel=0
sample=Cellos_staccato_MF_G3_RR1.opus
</region>

<region>
hivel=127
key=G4
lovel=0
sample=Cellos_staccato_MF_G4_RR1.opus
</region>

<region>
hikey=F6
hivel=127
lokey=G5
lovel=0
pitch_keycenter=G5
sample=Cellos_staccato_MF_G5_RR1.opus
</region>
</group>

<group>
amp_veltrack=0
ampeg_release=1.50
group_label=RR1_85-127_copy_copy
volume=0.0
xfin_hicc1=127
xfin_locc1=85
xfout_hicc1=127
xfout_locc1=127

<region>
hivel=127
key=A#2
lovel=0
sample=Cellos_staccato_FF_A#2_RR1.opus
</region>

<region>
hivel=127
key=A#3
lovel=0
sample=Cellos_staccato_FF_A#3_RR1.opus
</region>

<region>
hivel=127
key=A#4
lovel=0
sample=Cellos_staccato_FF_A#4_RR1.opus
</region>

<region>
hivel=127
key=A2
lovel=0
sample=Cellos_staccato_FF_A2_RR1.opus
</region>

<region>
hivel=127
key=A3
lovel=0
sample=Cellos_staccato_FF_A3_RR1.opus
</region>

<region>
hivel=127
key=A4
lovel=0
sample=Cellos_staccato_FF_A4_RR1.opus
</region>

<region>
hivel=127
key=B2
lovel=0
sample=Cellos_staccato_FF_B2_RR1.opus
</region>

<region>
hivel=127
key=B3
lovel=0
sample=Cellos_staccato_FF_B3_RR1.opus
</region>

<region>
hivel=127
key=B4
lovel=0
sample=Cellos_staccato_FF_B4_RR1.opus
</region>

<region>
hivel=127
key=C#2
lovel=0
sample=Cellos_staccato_FF_C#2_RR1.opus
</region>

<region>
hivel=127
key=C#3
lovel=0
sample=Cellos_staccato_FF_C#3_RR1.opus
</region>

<region>
hivel=127
key=C#4
lovel=0
sample=Cellos_staccato_FF_C#4_RR1.opus
</region>

<region>
hivel=127
key=C#5
lovel=0
sample=Cellos_staccato_FF_C#5_RR1.opus
</region>

<region>
hivel=127
key=C2
lovel=0
sample=Cellos_staccato_FF_C2_RR1.opus
</region>

<region>
hivel=127
key=C3
lovel=0
sample=Cellos_staccato_FF_C3_RR1.opus
</region>

<region>
hivel=127
key=C4
lovel=0
sample=Cellos_staccato_FF_C4_RR1.opus
</region>

<region>
hivel=127
key=C5
lovel=0
sample=Cellos_staccato_FF_C5_RR1.opus
</region>

<region>
hivel=127
key=D#2
lovel=0
sample=Cellos_staccato_FF_D#2_RR1.opus
</region>

<region>
hivel=127
key=D#3
lovel=0
sample=Cellos_staccato_FF_D#3_RR1.opus
</region>

<region>
hivel=127
key=D#4
lovel=0
sample=Cellos_staccato_FF_D#4_RR1.opus
</region>

<region>
hivel=127
key=D#5
lovel=0
sample=Cellos_staccato_FF_D#5_RR1.opus
</region>

<region>
hivel=127
key=D2
lovel=0
sample=Cellos_staccato_FF_D2_RR1.opus
</region>

<region>
hivel=127
key=D3
lovel=0
sample=Cellos_staccato_FF_D3_RR1.opus
</region>

<region>
hivel=127
key=D4
lovel=0
sample=Cellos_staccato_FF_D4_RR1.opus
</region>

<region>
hivel=127
key=D5
lovel=0
sample=Cellos_staccato_FF_D5_RR1.opus
</region>

<region>
hivel=127
key=E2
lovel=0
sample=Cellos_staccato_FF_E2_RR1.opus
</region>

<region>
hivel=127
key=E3
lovel=0
sample=Cellos_staccato_FF_E3_RR1.opus
</region>

<region>
hivel=127
key=E4
lovel=0
sample=Cellos_staccato_FF_E4_RR1.opus
</region>

<region>
hivel=127
key=E5
lovel=0
sample=Cellos_staccato_FF_E5_RR1.opus
</region>

<region>
hivel=127
key=F#2
lovel=0
sample=Cellos_staccato_FF_F#2_RR1.opus
</region>

<region>
hivel=127
key=F#3
lovel=0
sample=Cellos_staccato_FF_F#3_RR1.opus
</region>

<region>
hivel=127
key=F#4
lovel=0
sample=Cellos_staccato_FF_F#4_RR1.opus
</region>

<region>
hivel=127
key=F#5
lovel=0
sample=Cellos_staccato_FF_F#5_RR1.opus
</region>

<region>
hivel=127
key=F2
lovel=0
sample=Cellos_staccato_FF_F2_RR1.opus
</region>

<region>
hivel=127
key=F3
lovel=0
sample=Cellos_staccato_FF_F3_RR1.opus
</region>

<region>
hivel=127
key=F4
lovel=0
sample=Cellos_staccato_FF_F4_RR1.opus
</region>

<region>
hivel=127
key=F5
lovel=0
sample=Cellos_staccato_FF_F5_RR1.opus
</region>

<region>
hivel=127
key=G#2
lovel=0
sample=Cellos_staccato_FF_G#2_RR1.opus
</region>

<region>
hivel=127
key=G#3
lovel=0
sample=Cellos_staccato_FF_G#3_RR1.opus
</region>

<region>
hivel=127
key=G#4
lovel=0
sample=Cellos_staccato_FF_G#4_RR1.opus
</region>

<region>
hivel=127
key=G2
lovel=0
sample=Cellos_staccato_FF_G2_RR1.opus
</region>

<region>
hivel=127
key=G3
lovel=0
sample=Cellos_staccato_FF_G3_RR1.opus
</region>

<region>
hivel=127
key=G4
lovel=0
sample=Cellos_staccato_FF_G4_RR1.opus
</region>

<region>
hikey=F6
hivel=127
lokey=G5
lovel=0
pitch_keycenter=G5
sample=Cellos_staccato_FF_G5_RR1.opus
</region>
</group>